<?xml version="1.0" encoding="utf-8"?>
<!-- Generator: Adobe Illustrator 19.0.0, SVG Export Plug-In . SVG Version: 6.00 Build 0)  -->
<svg version="1.1" id="Слой_1" xmlns="http://www.w3.org/2000/svg" xmlns:xlink="http://www.w3.org/1999/xlink" x="0px" y="0px"
	 width="230.2px" height="440.2px" viewBox="601.9 319.7 230.2 440.2" style="enable-background:new 601.9 319.7 230.2 440.2;"
	 xml:space="preserve">
<style type="text/css">
	.st0{fill:url(#SVGID_1_);}
	.st1{fill:url(#SVGID_2_);}
	.st2{opacity:0.1;enable-background:new    ;}
	.st3{fill:url(#SVGID_3_);}
	.st4{fill:#29447E;}
	.st5{fill:#2B587A;}
	.st6{fill:#E47A09;}
	.st7{fill:#FFFFFF;}
	.st8{fill:#EC790B;}
	.st9{fill:url(#SVGID_4_);}
	.st10{fill:url(#SVGID_5_);}
	.st11{fill:url(#SVGID_6_);}
	.st12{fill:url(#SVGID_7_);}
	.st13{fill:#FCFCFC;}
	.st14{fill:url(#SVGID_8_);}
	.st15{fill:url(#SVGID_9_);}
	.st16{fill:url(#SVGID_10_);}
	.st17{fill:url(#SVGID_11_);}
	.st18{fill:#F9F8F7;}
	.st19{fill:url(#SVGID_12_);}
	.st20{fill:url(#SVGID_13_);}
	.st21{fill:url(#SVGID_14_);}
	.st22{fill:url(#SVGID_15_);}
	.st23{fill:#D8D8D8;}
	.st24{fill:none;stroke:#EC790B;stroke-miterlimit:10;}
	.st25{fill:url(#SVGID_16_);}
	.st26{fill:url(#SVGID_17_);}
	.st27{fill:none;}
	.st28{fill:none;stroke:#EC790B;stroke-linecap:round;stroke-linejoin:round;stroke-miterlimit:10;}
	.st29{fill:none;stroke:#6BAE01;stroke-miterlimit:10;}
	.st30{fill:#6BAE01;}
	.st31{fill:none;stroke:#C9620D;stroke-miterlimit:10;}
	.st32{fill:#FFFFFF;stroke:#ECE9E2;stroke-width:3;stroke-miterlimit:10;}
	.st33{fill:#ECE9E2;}
	.st34{fill:#FFFFFF;stroke:#EC790B;stroke-width:3;stroke-miterlimit:10;}
	.st35{fill:url(#SVGID_18_);}
	.st36{fill:none;stroke:#FFFFFF;stroke-miterlimit:10;}
</style>
<g>
	
		<linearGradient id="SVGID_1_" gradientUnits="userSpaceOnUse" x1="491.7834" y1="635.4971" x2="483.041" y2="623.7572" gradientTransform="matrix(1 0 0 1 182.8799 -256.6507)">
		<stop  offset="0" style="stop-color:#E95A0C"/>
		<stop  offset="0.5511" style="stop-color:#EC790B"/>
		<stop  offset="1" style="stop-color:#F8B133"/>
	</linearGradient>
	<circle class="st0" cx="670.6" cy="373.4" r="5.9"/>
	<g>
		<path d="M694.6,340c1.9-2.3,3.8-4.6,5.7-7c0.7-0.9,1.5-1.8,2-2.3c-0.3-1.8-0.6-3.4-0.8-4.9c-0.3-2.1-0.3-2.1-2.4-2.5
			c0.2-0.9,0.4-1.9,0.6-2.8c0.1-0.2,0.5-0.5,0.7-0.5c1-0.1,2-0.1,3,0c1.5,0.2,2.5,1.4,2.6,3c0.1,0.9,0.1,1.8,0.2,2.6
			c0.2,1.4,1.1,2.2,2.3,2.3c0.5,0,0.8-0.2,0.9-0.7c0.4-2.1,0.9-4.2,1.3-6.3c0.1-0.6,0.4-0.8,1-0.8c1.4,0,2.7,0,4.2,0
			c-0.5,2.6-1.1,5.1-1.6,7.6c1.5,0.3,2.6-0.1,3.5-1.5c0.6-1,1.1-2,1.6-3.1c1.5-3.3,4.5-3.8,7.3-3.2c0.1,0,0.2,0.1,0.4,0.2
			c-0.2,1-0.4,2-0.7,3.2c-2.3-0.3-2.8,1.4-3.6,3c-0.7,1.4-1.7,2.6-2.6,4c-0.2,0.3-0.2,0.8,0,1.1c1.1,2.4,2.2,4.7,3.3,7.1
			c0.7,1.4,0.5,1.6-1,1.6c-0.9,0-1.7-0.1-2.5,0c-1.2,0.2-1.8-0.4-2.2-1.5c-0.7-1.9-1.6-3.7-2.2-5.6c-0.3-0.9-0.9-0.7-1.5-0.7
			c-0.7,0-0.7,0.5-0.8,0.9c-0.4,2-0.9,3.9-1.2,5.9c-0.1,0.7-0.4,1-1.1,0.9c-1.3-0.1-2.6,0-4.1,0c0.5-2.6,1-5.1,1.5-7.6
			c-1-0.3-1.8-0.3-2.4,0.6c-1.5,2-3.1,4-4.6,6c-0.5,0.7-1,1-1.9,1C697.9,339.9,696.3,340,694.6,340
			C694.6,340.2,694.6,340.1,694.6,340z"/>
		<path d="M774.6,337.5c-0.5,2.9,0,2.8-2.8,2.9c-2.5,0.1-3.5-1.1-3.1-3.6c0.1-0.5,0.2-1.1,0.3-1.7c-1.4,0-2.7,0-3.9,0
			c-0.2,0-0.5,0.5-0.6,0.7c-0.3,1.2-0.5,2.4-0.8,3.7c-0.1,0.2-0.3,0.6-0.5,0.6c-1.4,0.1-2.7,0-4.2,0c0.3-1.6,0.6-3,0.9-4.5
			c0.4-1.7,0.7-3.4,1.1-5.1c0.2-0.9,0.1-1.5-1-1.7c0.1-0.7,0.2-1.4,0.4-2c0.1-0.3,0.4-0.6,0.6-0.6c1.1-0.1,2.3-0.2,3.4,0
			c1,0.2,1.6,1,1.6,2c0,0.8-0.1,1.6-0.1,2.6c1.3,0,2.6,0,3.9,0c0.2,0,0.5-0.4,0.6-0.7c0.3-1,0.4-2.1,0.7-3.1
			c0.1-0.3,0.4-0.7,0.6-0.7c1.3-0.1,2.7,0,4.2,0c-0.5,2.5-1,4.9-1.5,7.3c-0.1,0.7-0.3,1.4-0.5,2.2
			C773.5,336.7,773.4,337.4,774.6,337.5z"/>
		<path d="M741.7,337.7c-0.4,2.5-0.5,2.6-2.4,2.7c-2.7,0.2-3.3-0.1-3.9-2c-1.7,1.6-3.6,2.4-5.9,1.8c-1.5-0.3-2.5-1.3-2.4-2.8
			c0.1-2.1,0.5-4.2,0.8-6.3c0.1-0.8,0.5-1.7-0.7-2.1c-0.1-0.1,0-0.8,0-1.2c0-1,0.5-1.6,1.6-1.6c0.2,0,0.4-0.1,0.6-0.1
			c2.7-0.3,4.1,1.3,3.5,3.9c-0.3,1.4-0.6,2.8-0.9,4.2c-0.2,0.8-0.4,1.7,0.6,2.3c0.7,0.4,1.9,0.3,2.6-0.6c0.5-0.7,0.9-1.5,1.1-2.3
			c0.5-2,0.9-4.1,1.3-6.2c0.1-0.7,0.4-1,1.2-1c1.2,0.1,2.4,0,3.8,0c-0.5,2.2-0.9,4.3-1.3,6.3c-0.2,1-0.4,2-0.6,3
			C740.4,336.7,740.5,337.4,741.7,337.7z"/>
		<path d="M744.3,335.9c1.1,0.3,2.1,0.6,3.2,0.8c0.8,0.1,1.7,0.1,2.5,0.1c0.3,0,0.7-0.1,0.9-0.3c0.3-0.3,0.5-0.7,0.5-1.1
			c0-0.3-0.5-0.6-0.8-0.7c-1-0.1-2.1-0.2-3.2-0.2c0.2-0.9,0.3-1.7,0.5-2.4c0.1-0.2,0.5-0.5,0.7-0.5c0.7-0.1,1.4,0.1,2-0.1
			c0.5-0.1,1-0.6,1.2-1c0.2-0.8-0.6-1-1.1-1c-1.2,0-2.4,0.2-3.6,0.4c-0.3,0-0.7,0.1-1.2,0.3c0.2-1,0.3-1.9,0.5-2.8
			c0-0.2,0.3-0.4,0.6-0.5c2.5-0.8,5-1.2,7.6-0.5c1.3,0.3,2.4,0.9,2.6,2.4c0.2,1.6-0.4,2.8-1.9,3.6c-0.1,0.1-0.3,0.2-0.5,0.3
			c1.2,0.7,2,1.7,1.9,3.1c-0.1,1.2-0.4,2.3-1.4,3c-0.8,0.6-1.7,1.1-2.6,1.3c-2.8,0.8-5.6,0.5-8.4-0.3c-0.2-0.1-0.3-0.1-0.5-0.2
			c-0.1,0-0.2-0.1-0.3-0.2C743.6,338.2,743.9,337.1,744.3,335.9z"/>
		<path d="M784.2,326.4c-0.3,1.5-0.6,2.8-0.9,4.3c0.7-0.1,1.3-0.2,1.8-0.3c2.6-0.4,4.9,1,5.3,3.1c0.4,2.5-0.8,4.9-3.1,6.1
			c-2,1-4.2,1.2-6.4,0.7c-2.6-0.6-3.7-2.5-3.1-5.3c0.5-2.6,1.2-5.1,1.7-7.7c0.1-0.7,0.4-0.9,1.1-0.9
			C781.7,326.4,782.8,326.4,784.2,326.4z M783.7,336.8c1.3,0,2.3-0.9,2.3-1.9c0-0.8-0.7-1.4-1.7-1.4c-1.2,0-2.2,0.8-2.2,1.9
			C782.1,336.3,782.7,336.8,783.7,336.8z"/>
		<g>
			<path d="M787.2,353c1.3-0.3,2.6-0.8,3.9-0.9c2.4-0.1,4.2,1.4,4.6,3.8c0.8,4.6-1.7,9.7-7.9,10c-0.9,0-1.9,0.1-2.7-0.1
				c-2.6-0.6-4.2-2.4-4.3-5.3c-0.1-5.2,2.1-10.8,7.8-13.3c0.6-0.3,1.3-0.4,1.9-0.7c0.5-0.2,1.3-0.4,1.4-0.9c0.5-1.2,1.5-1,2.4-1
				c0.4,0,0.9,0,1.3,0c1.1,0,1.3,0.2,1.1,1.4c-0.2,1.3-1,2.4-2.1,3c-1.3,0.7-2.7,1.2-4.1,1.7C789,351,787.8,351.7,787.2,353z
				 M791.1,358.6c0-1.4-0.9-2.4-2.2-2.5c-1.8-0.1-3.4,1.5-3.5,3.4c-0.1,1.3,0.9,2.3,2.3,2.4C789.4,361.9,791,360.5,791.1,358.6z"/>
			<path d="M701,353c1.3-0.3,2.6-0.8,3.9-0.9c2.4-0.1,4.2,1.4,4.6,3.8c0.8,4.5-1.7,9.7-7.9,10c-0.9,0-1.9,0.1-2.7-0.1
				c-2.6-0.6-4.2-2.4-4.3-5.3c-0.1-5.2,2.1-10.8,7.8-13.3c0.6-0.3,1.3-0.4,1.9-0.7c0.5-0.2,1.3-0.4,1.4-0.9c0.5-1.2,1.5-1,2.4-1
				c0.4,0,0.9,0,1.3,0c1.1,0,1.3,0.2,1.1,1.4c-0.2,1.3-1,2.4-2.1,3c-1.3,0.7-2.7,1.2-4.1,1.7C702.8,351,701.6,351.7,701,353z
				 M704.9,358.6c0-1.4-0.9-2.4-2.3-2.5c-1.8,0-3.4,1.6-3.5,3.4c0,1.3,0.9,2.3,2.3,2.3C703.3,361.9,704.9,360.4,704.9,358.6z"/>
			<path d="M777.6,363.2c-0.1,2.3-0.3,2.5-1.7,2.7c-2.3,0.3-3.2-0.2-3.7-2c-0.6,0.5-1.3,1-2,1.4c-3.8,1.9-7.5-0.4-7.4-4.6
				c0.1-5.2,3.9-9,9.2-9.1c1.8,0,3.7,0.5,5.5,0.8c0.8,0.1,1,0.5,0.8,1.4c-0.6,2.5-1.1,5-1.6,7.4
				C776.4,362.1,776.4,362.9,777.6,363.2z M773.4,355.6c-1.7-0.6-3-0.4-4.1,0.6c-1.2,1.1-1.8,2.4-1.5,4.1c0.2,1.1,1.2,1.7,2.3,1.3
				c0.6-0.2,1.4-0.7,1.6-1.2C772.4,358.9,772.8,357.2,773.4,355.6z"/>
			<path d="M803.9,365.9c-3.4,0-5.7-1.5-6.2-4.5c-0.8-4.8,1.8-9.3,7.2-10c1-0.1,2.1-0.1,3.1,0.1c3.1,0.7,4.6,2.7,4.5,5.8
				c-0.1,4.4-2.5,7.4-6.7,8.3C805.2,365.9,804.6,365.9,803.9,365.9z M802.2,359.3c0,1.7,0.9,2.6,2.6,2.4c2-0.2,3.5-2.2,3.1-4.3
				c-0.2-1.3-1-1.9-2.3-1.8C803.6,355.7,802.2,357.2,802.2,359.3z"/>
			<path d="M716,359.8c0,1.4,0.4,1.9,1.6,2.2c1.7,0.4,3.4,0,5-0.4c0.4-0.1,0.8-0.2,1.4-0.4c-0.2,1.2-0.3,2.2-0.5,3.2
				c0,0.2-0.3,0.4-0.5,0.4c-2.6,1-5.3,1.3-8.1,0.6c-2.3-0.6-3.5-2.3-3.6-4.9c-0.2-4.8,3.6-9,8.4-9.1c1.3,0,2.6,0.1,3.8,0.5
				c2,0.6,2.7,2.3,2.2,4.3c-0.7,2.5-2.5,3.6-4.8,4.1C719.2,360.7,717.6,360.5,716,359.8z M716.8,357.2c1.1,0.6,2.1,0.7,3.2,0.4
				c0.7-0.2,1.3-0.7,1-1.5c-0.1-0.4-0.8-0.9-1.3-1C718.5,354.9,717.4,355.7,716.8,357.2z"/>
			<path d="M749.9,355.6c0.1-1,0.2-1.8,0.4-2.6c0.1-0.3,0.4-0.6,0.6-0.7c2.4-0.8,4.9-1.2,7.5-0.5c1.3,0.3,2.5,0.9,2.7,2.4
				c0.2,1.6-0.4,2.8-2,3.6c-0.1,0.1-0.2,0.1-0.3,0.2c2.2,2.2,2.4,4.4,0.4,6.1c-0.8,0.7-1.8,1.1-2.8,1.4c-2.7,0.8-5.4,0.5-8.1-0.3
				c-0.2-0.1-0.4-0.2-0.7-0.3c-0.1,0-0.2-0.1-0.3-0.2c0.3-1.1,0.6-2.2,0.9-3.4c1.1,0.3,2.2,0.6,3.2,0.8c0.8,0.1,1.7,0.1,2.5,0.1
				c0.3,0,0.7-0.1,0.9-0.3c0.3-0.3,0.5-0.7,0.5-1.1c0-0.3-0.5-0.6-0.8-0.7c-1-0.1-2.1-0.2-3.2-0.2c0.2-0.9,0.3-1.7,0.5-2.4
				c0.1-0.2,0.5-0.5,0.7-0.5c0.7-0.1,1.4,0.1,2-0.1c0.5-0.1,1-0.6,1.2-1c0.2-0.8-0.6-1-1.1-1c-1.2,0-2.4,0.2-3.6,0.4
				C750.7,355.4,750.4,355.5,749.9,355.6z"/>
			<path d="M728.5,355.6c0.1-1,0.2-1.8,0.4-2.6c0.1-0.3,0.4-0.6,0.6-0.7c2.4-0.8,4.9-1.2,7.5-0.5c1.3,0.3,2.5,0.9,2.6,2.4
				c0.2,1.6-0.4,2.8-2,3.6c-0.1,0-0.2,0.1-0.3,0.2c0,0.1,0,0.2,0.1,0.3c2.4,1.8,2.1,5-0.5,6.5c-2,1.2-4.2,1.4-6.5,1.1
				c-1.5-0.2-3-0.6-4.6-0.9c0.4-1.4,0.7-2.5,1-3.7c1.1,0.3,2.2,0.6,3.2,0.8c0.8,0.1,1.7,0.1,2.5,0.1c0.3,0,0.7-0.1,0.9-0.3
				c0.3-0.3,0.5-0.8,0.6-1.2c0-0.2-0.5-0.6-0.8-0.7c-1-0.1-2.1-0.1-3.2-0.2c0.2-0.9,0.3-1.6,0.5-2.4c0.1-0.3,0.5-0.5,0.8-0.6
				c0.6-0.1,1.1,0,1.7,0c0.7,0,1.4-0.2,1.5-1.1c0-1-0.8-1-1.5-1c-1.1,0-2.2,0.3-3.3,0.4C729.3,355.4,729,355.5,728.5,355.6z"/>
			<path d="M816.3,365.6c0.4-1.8,0.7-3.3,1-4.9c0.3-1.5,0.7-3,1-4.8c-1.2,0-2.4,0-3.7,0c0.3-1.3,0.5-2.5,0.8-3.6
				c0.1-0.2,0.4-0.5,0.6-0.5c3.8,0,7.6,0,11.6,0c-0.3,1.3-0.5,2.5-0.8,3.7c0,0.2-0.4,0.3-0.6,0.3c-0.6,0-1.2,0.1-1.8,0
				c-1-0.1-1.4,0.4-1.6,1.3c-0.5,2.5-1.1,5-1.6,7.5c-0.1,0.7-0.4,0.9-1.1,0.9C818.9,365.6,817.7,365.6,816.3,365.6z"/>
		</g>
	</g>
	<g>
		<path d="M696.3,376.6c-0.2,0.8-0.4,1.6-0.5,2.5c0,0.2-0.1,0.3-0.3,0.3c-0.3,0-0.5,0-0.8,0c0.1-0.5,0.2-1,0.3-1.5
			c0.3-1.6,0.7-3.2,1-4.8c0-0.2,0.1-0.3,0.3-0.3c0.3,0,0.5,0,0.8,0c-0.2,1-0.4,1.9-0.6,2.9c0.4,0,0.7-0.1,1-0.1
			c0.4-0.1,0.7-0.4,0.9-0.7c0.2-0.4,0.4-0.8,0.7-1.2c0.5-0.8,1.3-1.1,2.2-0.8c0,0.2-0.1,0.5-0.2,0.7c-0.7-0.1-1,0.3-1.3,0.9
			s-0.7,1.1-1.1,1.7c0.4,0.8,0.8,1.8,1.3,2.7c0,0.1,0.1,0.2,0.1,0.2c0,0.1-0.1,0.2-0.1,0.2c-0.3,0-0.6,0-0.8,0
			c-0.1,0-0.2-0.1-0.3-0.2c-0.4-0.8-0.7-1.6-1.1-2.4c-0.1-0.2-0.1-0.3-0.3-0.2C697,376.5,696.7,376.6,696.3,376.6z"/>
		<path d="M766.7,372.5c0.1,0.6-0.2,0.9-0.7,1.2c-0.4,0.2-0.9,0.4-1.4,0.6c-0.6,0.2-1.1,0.6-1.4,1.1c0.4-0.2,0.8-0.4,1.3-0.5
			c1.3-0.2,2.2,0.6,2.1,1.8c-0.1,1.8-1.6,2.9-3.3,2.6c-1-0.2-1.6-1.1-1.4-2.3c0.2-1.9,1.2-3.2,3-3.8c0.1,0,0.3-0.1,0.4-0.2
			c0.2-0.2,0.4-0.4,0.6-0.5c0,0,0-0.1-0.1-0.1C766.1,372.5,766.4,372.5,766.7,372.5z M762.8,377.5c0,0.7,0.4,1.1,1.1,1.1
			c0.9,0,1.7-0.8,1.8-1.7c0-0.5-0.3-1-0.8-1.1C763.8,375.6,762.8,376.4,762.8,377.5z"/>
		<path d="M760.2,374.8c0.4,0,0.6,0,1,0c-0.1,0.6-0.2,1.2-0.4,1.7c-0.2,1-0.4,2.1-0.7,3.1c-0.5,2.3-3,2.6-4.4,1.6
			c0.1-0.2,0.1-0.5,0.2-0.7c2.4,1,3.3-0.3,3.4-1.8c-0.5,0.6-1.1,0.7-1.7,0.6c-0.8-0.1-1.3-0.5-1.2-1.2c0-0.7,0.2-1.4,0.3-2.1
			c0.1-0.4,0-0.5-0.4-0.6c0-0.2,0-0.3,0.1-0.5c0-0.1,0.1-0.2,0.1-0.2c0.4,0,0.7-0.1,1,0.1c0.3,0.3,0.2,0.6,0.2,0.9
			c-0.1,0.5-0.2,1.1-0.3,1.6c-0.1,0.4,0,0.7,0.3,1c0.3,0.2,0.9,0.1,1.2-0.2c0.5-0.4,0.6-0.9,0.7-1.5
			C759.9,376.1,760,375.5,760.2,374.8z"/>
		<path d="M773.1,375.4c0.1-0.6,0.1-0.7,0.6-0.7s0.7,0.2,0.7,0.8c0.2-0.1,0.3-0.3,0.5-0.4c0.9-0.6,2.5-0.6,2.8,1
			c0.1,0.3,0.1,0.5,0,0.8c-0.1,0.8-0.4,1.5-1,2c-0.9,0.8-1.9,0.8-3-0.1c-0.1,0.5-0.2,1-0.3,1.4c-0.1,0.5-0.2,0.9-0.3,1.4
			c-0.3,0-0.6,0-0.9,0c0.2-1,0.4-2,0.6-3c0.2-0.9,0.4-1.7,0.5-2.6C773.5,375.6,773.5,375.5,773.1,375.4z M776.7,376.7
			c0-0.9-0.5-1.3-1.3-1.1c-1,0.3-1.5,1.7-1,2.5c0.1,0.2,0.3,0.3,0.5,0.3c0.4,0.1,0.8,0,1.2-0.3C776.5,377.8,776.7,377.3,776.7,376.7
			z"/>
		<path d="M722.5,378.6c-0.2,0.8,0,0.7-0.8,0.7c-0.4,0-0.5-0.2-0.5-0.8c-0.4,0.5-0.9,0.8-1.5,0.9c-1.2,0.2-2-0.7-1.9-1.9
			c0.2-1.9,1.7-3,3.6-2.7c0.4,0.1,0.7,0.2,1.1,0.3c0.2,0.1,0.2,0.2,0.2,0.4c-0.2,0.8-0.4,1.7-0.5,2.5c0,0.1,0,0.2,0,0.3
			C722.1,378.5,722.2,378.6,722.5,378.6z M721.7,375.7c-0.5-0.2-0.9-0.3-1.4-0.1c-0.9,0.2-1.6,1.4-1.3,2.3c0.1,0.4,0.3,0.6,0.7,0.6
			c0.7,0.1,1.4-0.4,1.6-1.2C721.5,376.8,721.6,376.3,721.7,375.7z"/>
		<path d="M706,379.3c0.2-1.1,0.4-2.1,0.7-3.2c0.1-0.3,0.1-0.7,0.2-1c0-0.1,0.1-0.2,0.2-0.3c0.1,0.1,0.3,0.1,0.3,0.2
			c0.5,0.7,0.9,1.3,1.4,2c0.8-0.7,1.5-1.3,2.3-2c0.2-0.1,0.3-0.2,0.5-0.3l0.1,0.1c-0.3,1.5-0.6,3-0.9,4.5c-0.3,0-0.6,0-1,0
			c0.2-0.8,0.3-1.6,0.5-2.5c-0.5,0.5-1,0.8-1.4,1.3c-0.2,0.2-0.4,0.2-0.5-0.1c-0.2-0.4-0.5-0.8-0.8-1.2c-0.1,0.6-0.3,1.2-0.4,1.8
			c-0.2,0.7-0.2,0.7-0.9,0.7C706.2,379.3,706.1,379.3,706,379.3z"/>
		<path d="M748.2,377.5c0-2,1.9-3.1,3.5-2.7c0.9,0.2,1.4,0.9,1.4,1.8c0,2.1-2,3.1-3.5,2.8C748.7,379.1,748.2,378.4,748.2,377.5z
			 M750.4,378.5c1,0,1.9-1,1.7-2.1c-0.1-0.5-0.4-0.8-0.9-0.8c-0.9-0.1-1.7,0.6-1.9,1.6C749.2,378,749.6,378.5,750.4,378.5z"/>
		<path d="M770.1,374.7c1.5,0,2.3,1.1,1.9,2.6c-0.3,1.4-1.9,2.4-3.3,2.1c-1.2-0.2-1.7-1.2-1.5-2.4
			C767.6,375.6,768.7,374.7,770.1,374.7z M769.4,378.5c1,0,1.8-1,1.6-2.1c-0.1-0.5-0.4-0.8-0.9-0.8c-0.9-0.1-1.8,0.5-1.9,1.6
			C768.2,378,768.6,378.5,769.4,378.5z"/>
		<path d="M700.6,377.5c0-2,1.8-3.1,3.5-2.7c0.9,0.2,1.4,0.9,1.4,1.8c0,1.9-1.7,3-3.3,2.8C701.2,379.2,700.6,378.5,700.6,377.5z
			 M704.5,376.7c0-0.6-0.3-1-0.9-1c-0.9-0.1-1.7,0.6-1.8,1.5c-0.1,1,0.6,1.6,1.5,1.3C704,378.2,704.5,377.5,704.5,376.7z"/>
		<path d="M784.6,377.2c-0.2,0.7,0.1,1.2,0.8,1.3c0.7,0.2,1.4,0,2.1-0.3c0,0.3-0.1,0.5-0.1,0.7c0,0.1-0.1,0.1-0.2,0.1
			c-0.7,0.3-1.5,0.4-2.3,0.2c-0.9-0.2-1.3-0.7-1.4-1.6c-0.1-1.9,1.6-3.4,3.5-3c0.5,0.1,1,0.4,1.1,0.9c0.1,0.6-0.1,1.1-0.6,1.4
			c-0.8,0.5-1.7,0.5-2.6,0.2C784.8,377.3,784.7,377.3,784.6,377.2z M784.9,376.5c0.5,0.4,1.5,0.5,2,0.1c0.2-0.2,0.4-0.4,0.3-0.7
			c0-0.3-0.3-0.3-0.5-0.4C785.9,375.4,785.2,375.7,784.9,376.5z"/>
		<path d="M736.1,377.6c-0.9-0.6-1-1.6-0.1-2.3c0.3-0.2,0.6-0.3,0.9-0.5c0.2-0.1,0.4,0,0.6,0c0.7,0,1.4,0,2.1,0
			c-0.1,0.7-0.3,1.3-0.4,1.9c-0.2,0.8-0.4,1.6-0.5,2.4c0,0.2-0.1,0.2-0.3,0.2c-0.3,0-0.5,0-0.8,0c0.1-0.5,0.2-1,0.3-1.4
			c-0.5-0.1-0.9-0.1-1.3,0.4c-0.1,0.2-0.3,0.3-0.5,0.5c-0.4,0.6-1,0.5-1.6,0.5C735.1,378.7,735.6,378.2,736.1,377.6z M738.1,377.1
			c0.1-0.5,0.2-1,0.3-1.5c-0.3,0-0.6,0-0.9,0c-0.1,0-0.1,0-0.2,0c-0.4,0-0.6,0.1-0.8,0.5c-0.3,0.5,0,0.9,0.5,1
			C737.4,377.1,737.7,377.1,738.1,377.1z"/>
		<path d="M727.1,377.4c-0.7,0-1.4,0-2,0c-0.1,0-0.2,0.2-0.2,0.3c-0.1,0.5-0.2,1.1-0.3,1.6c-0.3,0-0.6,0-1,0c0.1-0.7,0.3-1.3,0.4-2
			c0.1-0.4,0.2-0.9,0.3-1.3c0.1-0.5,0.1-0.5-0.4-0.6v-0.1c0.1-0.7,0.1-0.7,0.8-0.6c0.5,0,0.7,0.3,0.7,0.7c0,0.3-0.1,0.7-0.2,1
			c0.7,0,1.4,0,2.1,0c0.1-0.6,0.2-1.1,0.4-1.7c0.3,0,0.6,0,1,0c-0.1,0.5-0.2,1-0.3,1.5c-0.1,0.6-0.3,1.2-0.4,1.8
			c-0.1,0.4-0.1,0.5,0.4,0.5c0,0.6,0,0.7-0.4,0.7c-0.6,0.1-1-0.2-1-0.7c0-0.2,0-0.4,0.1-0.6C727,377.9,727.1,377.7,727.1,377.4z"/>
		<path d="M712.2,379.3c0.2-0.8,0.3-1.5,0.5-2.2c0.1-0.4,0.2-0.8,0.2-1.2c0.1-0.5,0.1-0.5-0.4-0.6c0.1-0.7,0.1-0.7,0.6-0.7
			s0.7,0.2,0.8,0.7c0.6-0.6,1.3-0.9,2.1-0.7c0.7,0.2,1.1,0.7,1,1.5c-0.1,0.6-0.2,1.2-0.4,1.9c-0.1,0.4-0.1,0.5,0.4,0.5v0.1
			c-0.1,0.2-0.1,0.5-0.2,0.5c-0.3,0.1-0.7,0.1-1,0c-0.3-0.1-0.4-0.4-0.3-0.7c0.1-0.6,0.2-1.2,0.4-1.9c0.1-0.4,0.1-0.7-0.3-1
			c-0.3-0.3-0.7-0.2-1.1-0.1c-0.4,0.2-0.7,0.5-0.8,1c-0.2,0.8-0.4,1.6-0.5,2.4c0,0.2-0.1,0.3-0.3,0.3
			C712.7,379.3,712.5,379.3,712.2,379.3z"/>
		<path d="M747.4,378.7C747.4,378.7,747.4,378.8,747.4,378.7c-0.1,0.3-0.1,0.6-0.2,0.6c-0.3,0.1-0.7,0.1-1,0
			c-0.3-0.1-0.4-0.4-0.3-0.7c0.1-0.6,0.2-1.2,0.4-1.9c0.1-0.4,0.1-0.7-0.3-1c-0.3-0.2-0.7-0.2-1.1-0.1c-0.5,0.2-0.8,0.5-0.9,1
			c-0.2,0.8-0.4,1.6-0.5,2.4c0,0.2-0.1,0.3-0.3,0.3s-0.5,0-0.8,0c0.2-0.8,0.4-1.7,0.5-2.5c0.1-0.3,0.1-0.6,0.2-0.9
			c0.1-0.5,0.1-0.5-0.4-0.6c0.1-0.7,0.1-0.7,0.6-0.7s0.7,0.2,0.8,0.7c0.5-0.5,1.1-0.8,1.8-0.7c0.9,0,1.5,0.7,1.3,1.6
			c-0.1,0.6-0.2,1.2-0.4,1.8C746.9,378.6,746.9,378.6,747.4,378.7z"/>
		<path d="M734.4,374.8c-0.2,1-0.4,2-0.6,3c0,0.1-0.1,0.3-0.1,0.4c-0.1,0.4,0,0.4,0.4,0.5c0,0.6,0,0.7-0.4,0.7
			c-0.7,0.1-0.9-0.1-1-0.7c-0.4,0.5-1,0.7-1.6,0.7c-1.1,0.1-1.7-0.6-1.5-1.7c0.1-0.6,0.3-1.2,0.4-1.7c0.1-0.4,0.1-0.4-0.4-0.5
			c0-0.7,0.1-0.7,0.6-0.7c0.6,0,0.8,0.2,0.8,0.7c-0.1,0.7-0.2,1.3-0.4,2c-0.2,0.9,0.2,1.3,1.1,1.1c0.6-0.2,0.9-0.5,1.1-1.1
			c0.2-0.8,0.4-1.6,0.5-2.4c0-0.2,0.1-0.3,0.3-0.3C733.9,374.8,734.2,374.8,734.4,374.8z"/>
		<path d="M782.9,379.3c-0.4,0-0.8,0-1.1,0c-0.3-0.6-0.6-1.2-0.8-1.7c-0.1-0.2-0.2-0.2-0.3-0.2c-0.2,0-0.5,0-0.7,0
			c-0.1,0.6-0.3,1.3-0.4,1.9c-0.3,0-0.6,0-1,0c0.1-0.6,0.2-1.2,0.4-1.8c0.1-0.5,0.2-1,0.3-1.5c0.1-0.5,0.1-0.5-0.4-0.5
			c0-0.6,0.1-0.7,0.8-0.7c0.5,0,0.7,0.3,0.7,0.8c0,0.3-0.1,0.6-0.2,0.9c1.1,0.2,2-0.3,2.3-1.4c0.1-0.3,0.2-0.4,0.5-0.4
			c0.2,0,0.3,0,0.6,0c-0.2,1-0.6,1.8-1.6,2.3C782.1,377.8,782.5,378.5,782.9,379.3z"/>
		<path d="M807,381.6c0.4-1.7,0.7-3.4,1.1-5.1c0-0.2,0.1-0.3,0.1-0.5c0-0.3,0.1-0.6-0.3-0.6c0.1-0.7,0.1-0.7,0.6-0.7
			s0.7,0.2,0.7,0.8c0-0.1,0.1-0.2,0.1-0.2c0.8-0.8,2.1-0.8,2.7-0.1c0.4,0.4,0.4,1,0.4,1.5c-0.1,0.8-0.4,1.5-1,2.1
			c-0.9,0.8-2,0.8-2.9-0.1c-0.2,1-0.4,1.9-0.6,2.9C807.6,381.6,807.3,381.6,807,381.6z M811.4,376.8c0-0.9-0.5-1.3-1.3-1.1
			c-0.9,0.3-1.5,1.7-1,2.5c0.1,0.2,0.3,0.3,0.5,0.4c0.4,0.1,0.8,0,1.2-0.3C811.3,377.8,811.4,377.3,811.4,376.8z"/>
		<path d="M822.8,381.6c0.4-1.7,0.7-3.4,1.1-5.1c0-0.2,0.1-0.3,0.1-0.5c0-0.3,0.1-0.6-0.3-0.6c0.1-0.7,0.1-0.7,0.6-0.7
			s0.7,0.2,0.7,0.8c0-0.1,0.1-0.2,0.1-0.2c0.8-0.8,2.1-0.8,2.7-0.1c0.4,0.4,0.4,1,0.4,1.5c-0.1,0.8-0.3,1.5-1,2.1
			c-0.9,0.8-2,0.8-3-0.1c-0.2,1-0.4,1.9-0.6,2.9C823.4,381.6,823.1,381.6,822.8,381.6z M827.2,376.8c0-0.9-0.5-1.3-1.3-1.1
			c-1,0.3-1.5,1.7-1,2.5c0.1,0.2,0.3,0.3,0.5,0.4c0.4,0.1,0.8,0,1.2-0.3C827,377.8,827.2,377.3,827.2,376.8z"/>
		<path d="M796.4,379.2c0.1-0.6,0.2-1.1,0.4-1.7c0.2-1.1,0.5-2.2,0.7-3.3c0.3-1.4,2-2.1,3.3-1.5c0.7,0.4,1,1.2,0.5,2
			c-0.2,0.4-0.6,0.6-0.8,0.9c0.6,0.2,0.9,0.8,0.8,1.5c0,0.9-0.4,1.6-1.2,2c-0.8,0.4-1.7,0.4-2.6,0.3
			C797.1,379.4,796.8,379.3,796.4,379.2z M798.4,378.6c1.1,0,1.9-0.6,1.8-1.6c0-0.5-0.3-0.9-0.8-0.9c-0.4,0-0.8,0-1.2,0.1
			c-0.1,0-0.2,0.1-0.2,0.2c-0.1,0.4-0.2,0.8-0.3,1.2C797.5,378.6,797.5,378.6,798.4,378.6z M798.2,375.5c0.5-0.1,0.9-0.2,1.4-0.3
			s0.9-0.4,0.9-0.9c0.1-0.5-0.1-0.8-0.6-0.9s-1.2,0.3-1.3,0.8C798.3,374.5,798.3,375,798.2,375.5z"/>
		<path d="M806.5,378.6c-0.2,0.8,0,0.7-0.8,0.7c-0.4,0-0.5-0.2-0.5-0.8c-0.4,0.5-0.8,0.8-1.4,0.9c-1.1,0.2-1.9-0.5-1.9-1.6
			c0-1.9,1.6-3.3,3.5-3c0.4,0.1,0.8,0.2,1.2,0.3c0.2,0.1,0.2,0.2,0.2,0.4c-0.2,0.8-0.4,1.7-0.5,2.5c0,0.1,0,0.2,0,0.2
			C806.1,378.5,806.1,378.7,806.5,378.6z M805.7,375.8c-0.4-0.2-1-0.3-1.4-0.2c-0.9,0.2-1.6,1.4-1.3,2.3c0.1,0.4,0.3,0.6,0.7,0.6
			c0.7,0.1,1.4-0.4,1.6-1.2C805.5,376.8,805.6,376.3,805.7,375.8z"/>
		<path d="M822.2,378.7c0,0.7-0.1,0.7-0.5,0.7c-0.6,0-0.8-0.2-0.8-0.7c-0.4,0.5-1,0.7-1.6,0.8c-1.1,0.1-1.7-0.6-1.5-1.7
			c0.1-0.5,0.2-1.1,0.4-1.6c0.1-0.5,0.1-0.5-0.4-0.6c0-0.6,0.1-0.7,0.8-0.7c0.5,0,0.7,0.3,0.6,0.8c-0.1,0.6-0.2,1.3-0.4,1.9
			c-0.2,0.9,0.2,1.3,1.1,1.1c0.6-0.2,0.9-0.5,1.1-1.1c0.2-0.8,0.4-1.6,0.5-2.4c0-0.2,0.1-0.3,0.3-0.3s0.5,0,0.8,0
			c-0.1,0.7-0.3,1.3-0.4,2c-0.1,0.4-0.2,0.9-0.3,1.3C821.8,378.6,821.8,378.7,822.2,378.7z"/>
		<path d="M796.1,374.8c0,0.8-0.5,1.5-1.6,2.3c0.4,0.7,0.7,1.4,1.1,2.2c-0.4,0-0.7,0-1,0c-0.1,0-0.1-0.1-0.2-0.2
			c-0.3-0.5-0.5-1-0.7-1.6c-0.1-0.2-0.2-0.2-0.4-0.2s-0.5,0-0.7,0c-0.1,0.6-0.3,1.3-0.4,1.9c-0.3,0-0.6,0-1,0
			c0.1-0.6,0.2-1.2,0.4-1.8c0.1-0.5,0.2-1,0.3-1.5c0.1-0.5,0.1-0.5-0.4-0.6c0-0.6,0.1-0.7,0.8-0.7c0.5,0,0.7,0.3,0.6,0.8
			c0,0.3-0.1,0.6-0.2,0.9c1.1,0.2,2-0.3,2.3-1.4c0.1-0.3,0.2-0.3,0.4-0.3C795.8,374.8,796,374.8,796.1,374.8z"/>
		<path d="M817.3,374.9c-0.1,0.3-0.1,0.6-0.2,0.9c-0.2,0-0.5,0-0.7,0s-0.5,0-0.7,0c-0.3,1.2-0.5,2.4-0.8,3.6c-0.3,0-0.6,0-1,0
			c0.3-1.2,0.5-2.4,0.8-3.6c-0.5,0-0.9,0-1.4,0c0.1-0.3,0.1-0.6,0.2-0.9C814.7,374.9,816,374.9,817.3,374.9z"/>
	</g>
	
		<linearGradient id="SVGID_2_" gradientUnits="userSpaceOnUse" x1="469.1364" y1="637.7193" x2="445.2379" y2="573.5472" gradientTransform="matrix(1 0 0 1 182.8799 -256.6507)">
		<stop  offset="0" style="stop-color:#E95A0C"/>
		<stop  offset="0.5511" style="stop-color:#EC790B"/>
		<stop  offset="1" style="stop-color:#F8B133"/>
	</linearGradient>
	<path class="st1" d="M676.3,336.1c-1.4-16.7-18.4-15.6-25.1-15.7c-6.7-0.1-15.9,1-21.1,1.7c-10.5,1.5-17.3,3.7-23.5,9.5
		c-6.2,5.9-4.3,20.4-4.3,24.6s2.6,22.3,23.5,22.9c20.9,0.5,33.6-6.6,41.5-14.2C673.4,359.1,677.7,352.8,676.3,336.1z M634.7,327.8
		c6,0,10.9,4.9,10.9,10.9s-4.9,10.9-10.9,10.9s-10.9-4.9-10.9-10.9C623.9,332.7,628.7,327.8,634.7,327.8z M632.5,368.1
		c-9.6,0-13-7.3-13.9-8.8c-0.9-1.5-7.5-15-11.8-16.8c0,0,4.2-1.6,7.4-1.5c3.1,0.1,6.5,0.9,8.7,4.6s5.7,11.6,10,14
		c2.6,1.5,4.5,1.4,6.4,1.4c1.9,0,6.9-1,7.4-1.2C647.3,359.5,640.3,368.1,632.5,368.1z M667.7,341.4c-3.2,2.6-11.6,10.2-17.4,14.5
		c-2.9,2.2-11.6,4.8-17.1,1.9c0,0,19.6-17.5,27.1-20.6c6.2-2.5,10.3-1.5,13-0.6C673.4,336.6,669.2,340.2,667.7,341.4z"/>
	<ellipse class="st2" cx="631.3" cy="382.2" rx="18.7" ry="0.7"/>
	<ellipse class="st2" cx="670.6" cy="382.2" rx="4.7" ry="0.4"/>
	<g>
		
			<linearGradient id="SVGID_3_" gradientUnits="userSpaceOnUse" x1="456.696" y1="636.0516" x2="455.9584" y2="608.0194" gradientTransform="matrix(1 0 0 1 182.8799 -256.6507)">
			<stop  offset="0" style="stop-color:#E95A0C"/>
			<stop  offset="0.5511" style="stop-color:#EC790B"/>
			<stop  offset="1" style="stop-color:#F8B133"/>
		</linearGradient>
		<path class="st3" d="M646.5,360.1c-1.2,1.6-7.3,8-14,8c-9.6,0-13-7.3-13.9-8.8c-0.1-0.2-0.3-0.6-0.6-1.2c-6-1-11.4-2.2-15.8-3.4
			c0,0.6,0,1.1,0,1.5c0,4.2,2.6,22.3,23.5,22.9c20.9,0.5,33.6-6.6,41.5-14.2c3.8-3.6,6.9-7.4,8.4-13.8
			C667.8,357,657.4,359.5,646.5,360.1z"/>
	</g>
</g>
<g>
	<path class="st4" d="M678.3,396.3c-7.4,0-13.3,6-13.3,13.3c0,7.4,6,13.3,13.3,13.3c7.4,0,13.4-6,13.4-13.3
		C691.6,402.3,685.6,396.3,678.3,396.3z M682.1,405.3h-2.2c-0.3,0-0.5,0.3-0.5,0.8v1.6h2.7v2.2h-2.7v6.7h-2.6v-6.7h-2.3v-2.2h2.3
		v-1.3c0-1.9,1.3-3.4,3.1-3.4h2.2V405.3L682.1,405.3z"/>
	<path class="st5" d="M646.7,396.3c-7.4,0-13.3,6-13.3,13.3c0,7.4,6,13.3,13.3,13.3c7.4,0,13.3-6,13.3-13.3
		C660.1,402.3,654.1,396.3,646.7,396.3z M653.8,414.1h-2.1c0,0-0.5,0.1-1-0.3c-0.8-0.5-1.5-1.9-2.1-1.8c-0.6,0.2-0.6,1.4-0.6,1.4
		s0,0.3-0.1,0.4c-0.1,0.2-0.4,0.2-0.4,0.2h-0.9c0,0-2.1,0.1-3.9-1.8c-2-2.1-3.7-6.2-3.7-6.2s-0.1-0.3,0-0.4c0.1-0.1,0.5-0.2,0.5-0.2
		h2.2c0,0,0.2,0,0.4,0.1c0.1,0.1,0.2,0.3,0.2,0.3s0.4,0.9,0.8,1.7c0.9,1.6,1.4,2,1.7,1.8c0.5-0.3,0.3-2.3,0.3-2.3s0-0.7-0.2-1.1
		c-0.2-0.3-0.5-0.3-0.7-0.4c-0.1,0,0.1-0.3,0.4-0.4c0.4-0.2,1.1-0.2,2-0.2c0.7,0,0.8,0,1.1,0.1c0.8,0.2,0.5,0.9,0.5,2.6
		c0,0.6-0.1,1.3,0.3,1.6c0.2,0.1,0.6,0,1.6-1.8c0.5-0.8,0.9-1.8,0.9-1.8s0.1-0.2,0.2-0.3s0.3-0.1,0.3-0.1h2.4c0,0,0.7-0.1,0.8,0.2
		c0.1,0.3-0.3,1.1-1.2,2.4c-1.6,2.1-1.8,1.9-0.4,3.1c1.3,1.2,1.5,1.7,1.6,1.8C654.9,414.1,653.8,414.1,653.8,414.1z"/>
	<path class="st6" d="M615.1,396.5c-7.3,0-13.1,5.9-13.1,13.1c0,7.3,5.9,13.1,13.1,13.1c7.3,0,13.1-5.9,13.1-13.1
		C628.3,402.4,622.4,396.5,615.1,396.5z"/>
	<path class="st7" d="M619.8,410.3c-0.2-0.5-0.9-0.8-1.7-0.2c-1.1,0.9-3,0.9-3,0.9s-1.8,0-3-0.9c-0.8-0.7-1.5-0.3-1.7,0.2
		c-0.4,0.8,0.1,1.2,1.1,1.8c0.9,0.6,2.1,0.8,2.8,0.8l-0.6,0.6c-0.9,0.9-1.8,1.8-2.4,2.4c-0.4,0.4-0.4,0.9,0,1.3l0.1,0.1
		c0.4,0.4,0.9,0.4,1.3,0l2.4-2.4c0.9,0.9,1.8,1.8,2.4,2.4c0.4,0.4,0.9,0.4,1.3,0l0.1-0.1c0.4-0.4,0.4-0.9,0-1.3l-2.4-2.4l-0.6-0.6
		c0.8-0.1,1.9-0.3,2.8-0.8C619.8,411.5,620.2,411.1,619.8,410.3L619.8,410.3z M615.1,403.8c1.1,0,2,0.9,2,2s-0.9,2-2,2
		c-1.1,0-2-0.9-2-2C613.2,404.7,614.1,403.8,615.1,403.8L615.1,403.8z M615.1,409.8c2.2,0,4-1.8,4-4c0-2.2-1.8-4-4-4
		c-2.2,0-4,1.8-4,4C611.1,408,612.9,409.8,615.1,409.8L615.1,409.8z"/>
</g>
<g>
	<path class="st8" d="M618.3,438.2v-3.1c0-3.9-3.1-7-7-7s-7,3.1-7,7v3.1c-1.3,0-2.3,1-2.3,2.3v5.4c0,3.9,3.1,7,7,7h4.7
		c3.9,0,7-3.1,7-7v-5.4C620.6,439.2,619.6,438.2,618.3,438.2z M605.9,435.1c0-3,2.4-5.4,5.4-5.4s5.4,2.4,5.4,5.4v3.1h-1.6v-3.1
		c0-2.1-1.7-3.9-3.9-3.9c-2.1,0-3.9,1.7-3.9,3.9v3.1h-1.6v-3.1H605.9z M614.4,435.1v3.1h-6.2v-3.1c0-1.7,1.4-3.1,3.1-3.1
		S614.4,433.4,614.4,435.1z M619.1,442.8v3.1c0,3-2.4,5.4-5.4,5.4H609c-3,0-5.4-2.4-5.4-5.4v-5.4c0-0.4,0.3-0.8,0.8-0.8s1,0,1.6,0
		h10.9c0.5,0,1,0,1.6,0c0.4,0,0.8,0.3,0.8,0.8C619.1,440.5,619.1,442.8,619.1,442.8z M611.3,442.8c0.9,0,1.6,0.7,1.6,1.6
		c0,0.5-0.3,1.4-0.5,2.1c-0.2,0.6-0.4,1-1,1c-0.6,0-0.8-0.5-1-1c-0.3-0.7-0.5-1.6-0.5-2.1C609.8,443.5,610.5,442.8,611.3,442.8z"/>
</g>
<g>
	<g>
		
			<linearGradient id="SVGID_4_" gradientUnits="userSpaceOnUse" x1="431.0301" y1="391.2183" x2="431.0301" y2="443.7408" gradientTransform="matrix(1 0 0 1 182.9199 63.1579)">
			<stop  offset="0" style="stop-color:#93C01F"/>
			<stop  offset="0.9013" style="stop-color:#6BAE01"/>
		</linearGradient>
		<path class="st9" d="M603.6,464.4c-0.9,0.6-0.7,1.1,0.4,1.1h19.9c1.1,0,1.3-0.5,0.4-1.1l-8.7-6.1c-0.9-0.6-2.4-0.6-3.3,0
			L603.6,464.4z"/>
	</g>
	
		<linearGradient id="SVGID_5_" gradientUnits="userSpaceOnUse" x1="431.0301" y1="390.2383" x2="431.0301" y2="447.375" gradientTransform="matrix(1 0 0 1 182.9199 63.1579)">
		<stop  offset="0" style="stop-color:#93C01F"/>
		<stop  offset="0.9013" style="stop-color:#6BAE01"/>
	</linearGradient>
	<path class="st10" d="M623.9,467.9H604c-1.1,0-2,0.9-2,2v32.7c0,1.1,0.9,2,2,2h19.9c1.1,0,2-0.9,2-2v-32.7
		C625.9,468.8,625,467.9,623.9,467.9z M611,499.9h-3.1c-1.1,0-2-0.8-2-1.8s0.9-1.8,2-1.8h3.1c1.1,0,2,0.8,2,1.8
		C613,499,612.1,499.9,611,499.9z M611,493.8h-3.1c-1.1,0-2-0.8-2-1.8s0.9-1.8,2-1.8h3.1c1.1,0,2,0.8,2,1.8S612.1,493.8,611,493.8z
		 M611,487.8h-3.1c-1.1,0-2-0.8-2-1.8s0.9-1.8,2-1.8h3.1c1.1,0,2,0.8,2,1.8S612.1,487.8,611,487.8z M611,481.8h-3.1
		c-1.1,0-2-0.8-2-1.8s0.9-1.8,2-1.8h3.1c1.1,0,2,0.8,2,1.8S612.1,481.8,611,481.8z M611,475.7h-3.1c-1.1,0-2-0.8-2-1.8
		s0.9-1.8,2-1.8h3.1c1.1,0,2,0.8,2,1.8S612.1,475.7,611,475.7z M620.1,499.9H617c-1.1,0-2-0.8-2-1.8s0.9-1.8,2-1.8h3.1
		c1.1,0,2,0.8,2,1.8C622.1,499,621.2,499.9,620.1,499.9z M620.1,493.8H617c-1.1,0-2-0.8-2-1.8s0.9-1.8,2-1.8h3.1c1.1,0,2,0.8,2,1.8
		S621.2,493.8,620.1,493.8z M620.1,487.8H617c-1.1,0-2-0.8-2-1.8s0.9-1.8,2-1.8h3.1c1.1,0,2,0.8,2,1.8S621.2,487.8,620.1,487.8z
		 M620.1,481.8H617c-1.1,0-2-0.8-2-1.8s0.9-1.8,2-1.8h3.1c1.1,0,2,0.8,2,1.8S621.2,481.8,620.1,481.8z M620.1,475.7H617
		c-1.1,0-2-0.8-2-1.8s0.9-1.8,2-1.8h3.1c1.1,0,2,0.8,2,1.8S621.2,475.7,620.1,475.7z"/>
	
		<linearGradient id="SVGID_6_" gradientUnits="userSpaceOnUse" x1="453.1801" y1="390.2412" x2="453.1801" y2="447.3737" gradientTransform="matrix(1 0 0 1 182.9199 63.1579)">
		<stop  offset="0" style="stop-color:#93C01F"/>
		<stop  offset="0.9013" style="stop-color:#6BAE01"/>
	</linearGradient>
	<path class="st11" d="M641.7,481.7h-11.2c-1.1,0-2,0.9-2,2v19c0,1.1,0.9,2,2,2h11.2c1.1,0,2-0.9,2-2v-19
		C643.7,482.6,642.8,481.7,641.7,481.7z M633.5,501.2c-0.9,0-1.7-0.6-1.7-1.4s0.8-1.4,1.7-1.4s1.7,0.6,1.7,1.4
		S634.4,501.2,633.5,501.2z M633.5,497.2c-0.9,0-1.7-0.6-1.7-1.4s0.8-1.4,1.7-1.4s1.7,0.6,1.7,1.4S634.4,497.2,633.5,497.2z
		 M633.5,493.1c-0.9,0-1.7-0.6-1.7-1.4s0.8-1.4,1.7-1.4s1.7,0.6,1.7,1.4S634.4,493.1,633.5,493.1z M633.5,489.1
		c-0.9,0-1.7-0.6-1.7-1.4s0.8-1.4,1.7-1.4s1.7,0.6,1.7,1.4S634.4,489.1,633.5,489.1z M638.7,501.2c-0.9,0-1.7-0.6-1.7-1.4
		s0.8-1.4,1.7-1.4c0.9,0,1.7,0.6,1.7,1.4S639.7,501.2,638.7,501.2z M638.7,497.2c-0.9,0-1.7-0.6-1.7-1.4s0.8-1.4,1.7-1.4
		c0.9,0,1.7,0.6,1.7,1.4S639.7,497.2,638.7,497.2z M638.7,493.1c-0.9,0-1.7-0.6-1.7-1.4s0.8-1.4,1.7-1.4c0.9,0,1.7,0.6,1.7,1.4
		S639.7,493.1,638.7,493.1z M638.7,489.1c-0.9,0-1.7-0.6-1.7-1.4s0.8-1.4,1.7-1.4c0.9,0,1.7,0.6,1.7,1.4S639.7,489.1,638.7,489.1z"
		/>
</g>
<g>
	<g>
		<path class="st7" d="M647.6,464.4c-0.9,0.6-0.7,1.1,0.4,1.1h19.9c1.1,0,1.3-0.5,0.4-1.1l-8.7-6.1c-0.9-0.6-2.4-0.6-3.3,0
			L647.6,464.4z"/>
	</g>
	<path class="st7" d="M667.9,467.9H648c-1.1,0-2,0.9-2,2v32.7c0,1.1,0.9,2,2,2h19.9c1.1,0,2-0.9,2-2v-32.7
		C669.9,468.8,669,467.9,667.9,467.9z M655,499.9h-3.1c-1.1,0-2-0.8-2-1.8s0.9-1.8,2-1.8h3.1c1.1,0,2,0.8,2,1.8
		C657,499,656.1,499.9,655,499.9z M655,493.8h-3.1c-1.1,0-2-0.8-2-1.8s0.9-1.8,2-1.8h3.1c1.1,0,2,0.8,2,1.8S656.1,493.8,655,493.8z
		 M655,487.8h-3.1c-1.1,0-2-0.8-2-1.8s0.9-1.8,2-1.8h3.1c1.1,0,2,0.8,2,1.8S656.1,487.8,655,487.8z M655,481.8h-3.1
		c-1.1,0-2-0.8-2-1.8s0.9-1.8,2-1.8h3.1c1.1,0,2,0.8,2,1.8S656.1,481.8,655,481.8z M655,475.7h-3.1c-1.1,0-2-0.8-2-1.8
		s0.9-1.8,2-1.8h3.1c1.1,0,2,0.8,2,1.8S656.1,475.7,655,475.7z M664.1,499.9H661c-1.1,0-2-0.8-2-1.8s0.9-1.8,2-1.8h3.1
		c1.1,0,2,0.8,2,1.8C666.1,499,665.2,499.9,664.1,499.9z M664.1,493.8H661c-1.1,0-2-0.8-2-1.8s0.9-1.8,2-1.8h3.1c1.1,0,2,0.8,2,1.8
		S665.2,493.8,664.1,493.8z M664.1,487.8H661c-1.1,0-2-0.8-2-1.8s0.9-1.8,2-1.8h3.1c1.1,0,2,0.8,2,1.8S665.2,487.8,664.1,487.8z
		 M664.1,481.8H661c-1.1,0-2-0.8-2-1.8s0.9-1.8,2-1.8h3.1c1.1,0,2,0.8,2,1.8C666.1,480.9,665.2,481.8,664.1,481.8z M664.1,475.7H661
		c-1.1,0-2-0.8-2-1.8s0.9-1.8,2-1.8h3.1c1.1,0,2,0.8,2,1.8S665.2,475.7,664.1,475.7z"/>
	<path class="st7" d="M685.7,481.7h-11.2c-1.1,0-2,0.9-2,2v19c0,1.1,0.9,2,2,2h11.2c1.1,0,2-0.9,2-2v-19
		C687.7,482.6,686.8,481.7,685.7,481.7z M677.5,501.2c-0.9,0-1.7-0.6-1.7-1.4s0.8-1.4,1.7-1.4s1.7,0.6,1.7,1.4
		S678.4,501.2,677.5,501.2z M677.5,497.2c-0.9,0-1.7-0.6-1.7-1.4s0.8-1.4,1.7-1.4s1.7,0.6,1.7,1.4S678.4,497.2,677.5,497.2z
		 M677.5,493.1c-0.9,0-1.7-0.6-1.7-1.4s0.8-1.4,1.7-1.4s1.7,0.6,1.7,1.4S678.4,493.1,677.5,493.1z M677.5,489.1
		c-0.9,0-1.7-0.6-1.7-1.4s0.8-1.4,1.7-1.4s1.7,0.6,1.7,1.4S678.4,489.1,677.5,489.1z M682.7,501.2c-0.9,0-1.7-0.6-1.7-1.4
		s0.8-1.4,1.7-1.4c0.9,0,1.7,0.6,1.7,1.4S683.7,501.2,682.7,501.2z M682.7,497.2c-0.9,0-1.7-0.6-1.7-1.4s0.8-1.4,1.7-1.4
		c0.9,0,1.7,0.6,1.7,1.4S683.7,497.2,682.7,497.2z M682.7,493.1c-0.9,0-1.7-0.6-1.7-1.4s0.8-1.4,1.7-1.4c0.9,0,1.7,0.6,1.7,1.4
		S683.7,493.1,682.7,493.1z M682.7,489.1c-0.9,0-1.7-0.6-1.7-1.4s0.8-1.4,1.7-1.4c0.9,0,1.7,0.6,1.7,1.4S683.7,489.1,682.7,489.1z"
		/>
</g>
<linearGradient id="SVGID_7_" gradientUnits="userSpaceOnUse" x1="419.0741" y1="463.7321" x2="456.3741" y2="463.7321" gradientTransform="matrix(1 0 0 1 182.9199 63.1579)">
	<stop  offset="0" style="stop-color:#93C01F"/>
	<stop  offset="0.9013" style="stop-color:#6BAE01"/>
</linearGradient>
<path class="st12" d="M614,545.6h-0.2c-1.2,0-2.5-0.1-4-0.1s-2.9,0-4.4,0h-0.1c-1,0-1.9-0.3-2.5-0.9c-0.6-0.6-0.9-1.4-0.9-2.5
	c0-1.7,0-3.3,0-5c0-3.1,0-6.3,0.1-9.5c0-1.3,0.6-2.7,1.5-3.7c3.2-3.3,6.5-6.5,9.6-9.7c1.6-1.6,3.2-3.2,4.8-4.8
	c1.6-1.6,3.6-1.6,5.2,0c1.4,1.4,2.9,2.9,4.3,4.3c3.4,3.4,6.9,6.9,10.3,10.4c1.1,1.2,1.3,3,1.4,3.7c0.1,1.7,0.1,3.4,0.1,5.1
	c0,0.4,0,0.7,0,1.1v0.9v2.1c0,1.7,0,3.4,0,5c0,1.1-0.3,1.9-0.9,2.5c-0.6,0.6-1.4,0.9-2.4,0.9h-0.1c-2.9,0-5.8-0.1-8.7,0H627
	c-1,0-1.8-0.3-2.3-0.9c-0.8-0.8-0.9-1.8-0.9-2.5c0-3.2,0-6.4,0-10l0,0l0,0c-2.2,0-4.4,0-6.5,0c0,0,0,0-0.1,0v0.1v2.4
	c0,2.4,0,4.9,0,7.3c0,0.8-0.1,1.9-0.9,2.7C615.6,545.6,614.4,545.6,614,545.6z"/>
<path class="st13" d="M609.8,541.8c1.4,0,2.6,0,3.7,0c0-2.4,0-4.8,0-7.1v-2.4c0-2.8,1-3.9,3.8-3.9c2.2,0,4.4,0,6.6,0
	c2.7,0,3.8,1.1,3.8,3.8c0,3.4,0,6.5,0,9.6c2.6,0,5.2,0,7.8,0c0-1.6,0-3.2,0-4.7v-0.9V535c0-0.7,0-1.3,0-2c0-1.6,0-3.3-0.1-4.9
	c0-0.7-0.2-1.1-0.3-1.2c-3.4-3.5-6.9-6.9-10.3-10.3c-1.4-1.4-2.9-2.8-4.3-4.3c-1.6,1.6-3.2,3.2-4.8,4.8c-3.2,3.2-6.4,6.4-9.6,9.7
	c-0.2,0.2-0.5,0.8-0.5,1.1c-0.1,3.1-0.1,6.3-0.1,9.4c0,1.5,0,3.1,0,4.6C607.1,541.8,608.5,541.8,609.8,541.8z"/>
<linearGradient id="SVGID_8_" gradientUnits="userSpaceOnUse" x1="445.3391" y1="453.6321" x2="449.8761" y2="453.6321" gradientTransform="matrix(1 0 0 1 182.9199 63.1579)">
	<stop  offset="0" style="stop-color:#93C01F"/>
	<stop  offset="0.9013" style="stop-color:#6BAE01"/>
</linearGradient>
<polygon class="st14" points="632.8,522.4 628.3,517.8 628.3,511.2 632.8,511.2 "/>
<path class="st7" d="M658,545.6h-0.2c-1.2,0-2.5-0.1-4-0.1s-2.9,0-4.4,0h-0.1c-1,0-1.9-0.3-2.5-0.9c-0.6-0.6-0.9-1.4-0.9-2.5
	c0-1.7,0-3.3,0-5c0-3.1,0-6.3,0.1-9.5c0-1.3,0.6-2.7,1.5-3.7c3.2-3.3,6.5-6.5,9.6-9.7c1.6-1.6,3.2-3.2,4.8-4.8
	c1.6-1.6,3.6-1.6,5.2,0c1.4,1.4,2.9,2.9,4.3,4.3c3.4,3.4,6.9,6.9,10.3,10.4c1.1,1.2,1.3,3,1.4,3.7c0.1,1.7,0.1,3.4,0.1,5.1
	c0,0.4,0,0.7,0,1.1v0.9v2.1c0,1.7,0,3.4,0,5c0,1.1-0.3,1.9-0.9,2.5c-0.6,0.6-1.4,0.9-2.4,0.9h-0.1c-2.9,0-5.8-0.1-8.7,0H671
	c-1,0-1.8-0.3-2.3-0.9c-0.8-0.8-0.9-1.8-0.9-2.5c0-3.2,0-6.4,0-10l0,0l0,0c-2.2,0-4.4,0-6.5,0c0,0,0,0-0.1,0v0.1v2.4
	c0,2.4,0,4.9,0,7.3c0,0.8-0.1,1.9-0.9,2.7C659.6,545.6,658.4,545.6,658,545.6z"/>
<linearGradient id="SVGID_9_" gradientUnits="userSpaceOnUse" x1="466.8431" y1="463.9321" x2="496.6261" y2="463.9321" gradientTransform="matrix(1 0 0 1 182.9199 63.1579)">
	<stop  offset="0" style="stop-color:#93C01F"/>
	<stop  offset="0.9013" style="stop-color:#6BAE01"/>
</linearGradient>
<path class="st15" d="M653.8,541.8c1.4,0,2.6,0,3.7,0c0-2.4,0-4.8,0-7.1v-2.4c0-2.8,1-3.9,3.8-3.9c2.2,0,4.4,0,6.6,0
	c2.7,0,3.8,1.1,3.8,3.8c0,3.4,0,6.5,0,9.6c2.6,0,5.2,0,7.8,0c0-1.6,0-3.2,0-4.7v-0.9V535c0-0.7,0-1.3,0-2c0-1.6,0-3.3-0.1-4.9
	c0-0.7-0.2-1.1-0.3-1.2c-3.4-3.5-6.9-6.9-10.3-10.3c-1.4-1.4-2.9-2.8-4.3-4.3c-1.6,1.6-3.2,3.2-4.8,4.8c-3.2,3.2-6.4,6.4-9.6,9.7
	c-0.2,0.2-0.5,0.8-0.5,1.1c-0.1,3.1-0.1,6.3-0.1,9.4c0,1.5,0,3.1,0,4.6C651.1,541.8,652.5,541.8,653.8,541.8z"/>
<polygon class="st7" points="676.8,522.4 672.3,517.8 672.3,511.2 676.8,511.2 "/>
<linearGradient id="SVGID_10_" gradientUnits="userSpaceOnUse" x1="442.6301" y1="484.1699" x2="442.6301" y2="541.3008" gradientTransform="matrix(1 0 0 1 182.9199 63.1579)">
	<stop  offset="0" style="stop-color:#93C01F"/>
	<stop  offset="0.9013" style="stop-color:#6BAE01"/>
</linearGradient>
<path class="st16" d="M649,576.3v-17.6h-8.8v-2.9c0-1.6-1.3-2.9-2.9-2.9H605c-1.6,0-2.9,1.3-2.9,2.9v8.8c0,1.6,1.3,2.9,2.9,2.9h32.3
	c1.6,0,2.9-1.3,2.9-2.9v-2.9h5.9v11.8h-26.4v5.9h-1.5c-0.8,0-1.5,0.7-1.5,1.5v14.7c0,0.8,0.7,1.5,1.5,1.5h5.9c0.8,0,1.5-0.7,1.5-1.5
	v-14.7c0-0.8-0.7-1.5-1.5-1.5h-1.5v-2.9L649,576.3L649,576.3z M637.3,558.7H605v-2.9h32.3V558.7z"/>
<path class="st7" d="M700.3,576.3v-17.6h-8.8v-2.9c0-1.6-1.3-2.9-2.9-2.9h-32.3c-1.6,0-2.9,1.3-2.9,2.9v8.8c0,1.6,1.3,2.9,2.9,2.9
	h32.3c1.6,0,2.9-1.3,2.9-2.9v-2.9h5.9v11.8H671v5.9h-1.5c-0.8,0-1.5,0.7-1.5,1.5v14.7c0,0.8,0.7,1.5,1.5,1.5h5.9
	c0.8,0,1.5-0.7,1.5-1.5v-14.7c0-0.8-0.7-1.5-1.5-1.5h-1.5v-2.9L700.3,576.3L700.3,576.3z M688.5,558.7h-32.3v-2.9h32.3
	C688.5,555.7,688.5,558.7,688.5,558.7z"/>
<g>
	
		<linearGradient id="SVGID_11_" gradientUnits="userSpaceOnUse" x1="448.6176" y1="530.9854" x2="448.6176" y2="588.1171" gradientTransform="matrix(1 0 0 1 182.9199 63.1579)">
		<stop  offset="0" style="stop-color:#93C01F"/>
		<stop  offset="0.9013" style="stop-color:#6BAE01"/>
	</linearGradient>
	<path class="st17" d="M656.4,640.1c-1.7,0.1-1.7,0.1-2.3-3.2c-15,0-30,0-45.2,0c-0.1,1.1-0.1,2.1-0.2,3.4c-3.2,0.4-1.3-2.3-2.2-3.2
		c-4-0.8-4.6-1.5-4.6-5.8c0-4.5,0-9.1,0-13.6c0-4.2,1-5.1,5.1-5.2c0.8,0,1.6,0,2.9,0c0-1.9,0-3.6,0-5.2c0.1-3,1.3-4.2,4.2-4.3
		c11.6,0,23.1,0,34.7,0c3.3,0,4.5,1.3,4.5,4.5c0,1.6,0,3.1,0,5c1.4,0,2.7,0,4,0c2.4,0.1,3.8,1.3,3.8,3.6c0.1,5.7,0.1,11.4,0,17.1
		c-0.1,2.8-2.1,3.7-4.7,3.7C656.6,638,656.5,639,656.4,640.1z M653.2,615c1.3,3-1.4,6.5,1.6,9.3c0.1,0.1-0.3,1.1-0.7,1.2
		c-0.7,0.2-1.5,0.2-2.2,0.2c-13.4,0-26.8,0-40.1,0c-3,0-3,0-1.9-2.6c0.1-0.1,0.1-0.3,0.1-0.5c0-2.6,0-5.2,0-8c-1,0-1.8,0.1-2.5,0
		c-2.5-0.3-3.3,0.7-3.3,3.2c0.2,4.8,0.1,9.6,0,14.4c0,1.7,0.5,2.6,2.4,2.6c16.8,0,33.5,0,50.3,0c1.7,0,2.3-0.7,2.3-2.4
		c0-4.4,0-8.8,0-13.1c0-4.9,0-4.9-5-4.6C654,614.6,653.9,614.7,653.2,615z M630.5,605.1c-5.7,0-11.2,0-16.7,0.1
		c-0.6,0-1.6,0.9-1.6,1.4c-0.1,5.6-0.1,11.2-0.1,16.8c6.3,0,12.3,0,18.4,0C630.5,617.3,630.5,611.4,630.5,605.1z M651.2,623.4
		c0-5.6,0-11,0-16.3c0-1.5-0.7-2-2.1-2c-3.1,0-6.3,0-9.4,0c-2.3,0-4.5,0-6.8,0c0,6.4,0,12.3,0,18.3
		C639,623.4,644.9,623.4,651.2,623.4z"/>
</g>
<g>
	<path class="st18" d="M721.3,640.1c-1.7,0.1-1.7,0.1-2.3-3.2c-15,0-30,0-45.2,0c-0.1,1.1-0.1,2.1-0.2,3.4c-3.2,0.4-1.3-2.3-2.2-3.2
		c-4-0.8-4.6-1.5-4.6-5.8c0-4.5,0-9.1,0-13.6c0-4.2,1-5.1,5.1-5.2c0.8,0,1.6,0,2.9,0c0-1.9,0-3.6,0-5.2c0.1-3,1.3-4.2,4.2-4.3
		c11.6,0,23.1,0,34.7,0c3.3,0,4.5,1.3,4.5,4.5c0,1.6,0,3.1,0,5c1.4,0,2.7,0,4,0c2.4,0.1,3.8,1.3,3.8,3.6c0.1,5.7,0.1,11.4,0,17.1
		c-0.1,2.8-2.1,3.7-4.7,3.7C721.4,638,721.3,639,721.3,640.1z M718,615c1.3,3-1.4,6.5,1.6,9.3c0.1,0.1-0.3,1.1-0.7,1.2
		c-0.7,0.2-1.5,0.2-2.2,0.2c-13.4,0-26.8,0-40.1,0c-3,0-3,0-1.9-2.6c0.1-0.1,0.1-0.3,0.1-0.5c0-2.6,0-5.2,0-8c-1,0-1.8,0.1-2.5,0
		c-2.5-0.3-3.3,0.7-3.3,3.2c0.2,4.8,0.1,9.6,0,14.4c0,1.7,0.5,2.6,2.4,2.6c16.8,0,33.5,0,50.3,0c1.7,0,2.3-0.7,2.3-2.4
		c0-4.4,0-8.8,0-13.1c0-4.9,0-4.9-5-4.6C718.9,614.6,718.7,614.7,718,615z M695.4,605.1c-5.7,0-11.2,0-16.7,0.1
		c-0.6,0-1.6,0.9-1.6,1.4c-0.1,5.6-0.1,11.2-0.1,16.8c6.3,0,12.3,0,18.4,0C695.4,617.3,695.4,611.4,695.4,605.1z M716,623.4
		c0-5.6,0-11,0-16.3c0-1.5-0.7-2-2.1-2c-3.1,0-6.3,0-9.4,0c-2.3,0-4.5,0-6.8,0c0,6.4,0,12.3,0,18.3
		C703.9,623.4,709.8,623.4,716,623.4z"/>
</g>
<linearGradient id="SVGID_12_" gradientUnits="userSpaceOnUse" x1="4849.916" y1="2700.991" x2="4869.9224" y2="2700.991" gradientTransform="matrix(-1 0 0 -1 5471.9224 3371.4812)">
	<stop  offset="0" style="stop-color:#EC790B"/>
	<stop  offset="1" style="stop-color:#F29100"/>
</linearGradient>
<path class="st19" d="M603,668.4l13.6-13.3c0.4-0.4,1-0.7,1.6-0.7s1.2,0.2,1.6,0.7l1.6,1.6c0.4,0.4,0.7,1,0.7,1.6
	c0,0.6-0.2,1.2-0.7,1.6l-10.6,10.6l10.6,10.6c0.4,0.4,0.7,1,0.7,1.6s-0.2,1.2-0.7,1.6l-1.6,1.6c-0.4,0.4-1,0.7-1.6,0.7
	s-1.2-0.2-1.6-0.7L603,672.4c-0.7-0.7-1-1.3-1-2S602.3,669,603,668.4L603,668.4z"/>
<linearGradient id="SVGID_13_" gradientUnits="userSpaceOnUse" x1="443.0791" y1="607.1321" x2="463.0821" y2="607.1321" gradientTransform="matrix(1 0 0 1 182.9199 63.1579)">
	<stop  offset="0" style="stop-color:#EC790B"/>
	<stop  offset="1" style="stop-color:#F29100"/>
</linearGradient>
<path class="st20" d="M645,672.4l-13.6,13.3c-0.4,0.4-1,0.7-1.6,0.7s-1.2-0.2-1.6-0.7l-1.6-1.6c-0.4-0.4-0.7-1-0.7-1.6
	s0.2-1.2,0.7-1.6l10.6-10.6l-10.6-10.6c-0.4-0.4-0.7-1-0.7-1.6c0-0.6,0.2-1.2,0.7-1.6l1.6-1.6c0.4-0.4,1-0.7,1.6-0.7
	s1.2,0.2,1.6,0.7l13.6,13.4c0.7,0.7,1,1.3,1,2C646,671.1,645.7,671.8,645,672.4L645,672.4L645,672.4z"/>
<linearGradient id="SVGID_14_" gradientUnits="userSpaceOnUse" x1="4849.916" y1="2665.541" x2="4869.9224" y2="2665.541" gradientTransform="matrix(-1 0 0 -1 5471.9224 3371.4812)">
	<stop  offset="0" style="stop-color:#EC290B"/>
	<stop  offset="1" style="stop-color:#F29100"/>
</linearGradient>
<path class="st21" d="M603,703.9l13.6-13.3c0.4-0.4,1-0.7,1.6-0.7s1.2,0.2,1.6,0.7l1.6,1.6c0.4,0.4,0.7,1,0.7,1.6s-0.2,1.2-0.7,1.6
	l-10.6,10.5l10.6,10.6c0.4,0.4,0.7,1,0.7,1.6s-0.2,1.2-0.7,1.6l-1.6,1.6c-0.4,0.4-1,0.7-1.6,0.7c-0.6,0-1.2-0.2-1.6-0.7L603,707.9
	c-0.7-0.7-1-1.3-1-2S602.3,704.5,603,703.9L603,703.9z"/>
<linearGradient id="SVGID_15_" gradientUnits="userSpaceOnUse" x1="443.0791" y1="642.6322" x2="463.0821" y2="642.6322" gradientTransform="matrix(1 0 0 1 182.9199 63.1579)">
	<stop  offset="0" style="stop-color:#EC290B"/>
	<stop  offset="1" style="stop-color:#F29100"/>
</linearGradient>
<path class="st22" d="M645,707.9l-13.6,13.3c-0.4,0.4-1,0.7-1.6,0.7s-1.2-0.2-1.6-0.7l-1.6-1.6c-0.4-0.4-0.7-1-0.7-1.6
	s0.2-1.2,0.7-1.6l10.6-10.6l-10.6-10.6c-0.4-0.4-0.7-1-0.7-1.6s0.2-1.2,0.7-1.6l1.6-1.6c0.4-0.4,1-0.7,1.6-0.7s1.2,0.2,1.6,0.7
	l13.6,13.5c0.7,0.7,1,1.3,1,2S645.7,707.3,645,707.9L645,707.9L645,707.9z"/>
<path class="st23" d="M603,741.7l13.6-13.3c0.4-0.4,1-0.7,1.6-0.7s1.2,0.2,1.6,0.7l1.6,1.6c0.4,0.4,0.7,1,0.7,1.6s-0.2,1.2-0.7,1.6
	l-10.6,10.6l10.6,10.6c0.4,0.4,0.7,1,0.7,1.6s-0.2,1.2-0.7,1.6l-1.6,1.6c-0.4,0.4-1,0.7-1.6,0.7s-1.2-0.2-1.6-0.7L603,745.7
	c-0.7-0.7-1-1.3-1-2S602.3,742.4,603,741.7L603,741.7z"/>
<path class="st23" d="M645,745.8l-13.6,13.3c-0.4,0.4-1,0.7-1.6,0.7s-1.2-0.2-1.6-0.7l-1.6-1.6c-0.4-0.4-0.7-1-0.7-1.6
	s0.2-1.2,0.7-1.6l10.6-10.6l-10.6-10.6c-0.4-0.4-0.7-1-0.7-1.6s0.2-1.2,0.7-1.6l1.6-1.6c0.4-0.4,1-0.7,1.6-0.7s1.2,0.2,1.6,0.7
	l13.6,13.4c0.7,0.7,1,1.3,1,2C646,744.4,645.7,745.1,645,745.8L645,745.8L645,745.8z"/>
<circle class="st24" cx="721.5" cy="412.5" r="11.2"/>
<circle class="st24" cx="721.6" cy="439.5" r="11.2"/>
<circle class="st8" cx="721.6" cy="439.5" r="8"/>
<g>
	
		<linearGradient id="SVGID_16_" gradientUnits="userSpaceOnUse" x1="645.6309" y1="-245.5803" x2="639.6711" y2="-229.5772" gradientTransform="matrix(1 0 0 -1 -6.010000e-002 204.0643)">
		<stop  offset="0" style="stop-color:#E95A0C"/>
		<stop  offset="0.5511" style="stop-color:#EC790B"/>
		<stop  offset="1" style="stop-color:#F8B133"/>
	</linearGradient>
	<path class="st25" d="M644.7,448.1c-4.2,0-5.7-3.2-6-3.8c-0.4-0.7-3.3-6.5-5.1-7.3c0,0,1.8-0.7,3.2-0.7c1.4,0,2.8,0.4,3.8,2
		c0.9,1.6,2.5,5,4.3,6.1c1.1,0.6,2,0.6,2.8,0.6c0.8,0,3-0.4,3.2-0.5C651.1,444.4,648.1,448.1,644.7,448.1z"/>
	
		<linearGradient id="SVGID_17_" gradientUnits="userSpaceOnUse" x1="655.1908" y1="-238.5832" x2="652.6354" y2="-231.7216" gradientTransform="matrix(1 0 0 -1 -6.010000e-002 204.0643)">
		<stop  offset="0" style="stop-color:#E95A0C"/>
		<stop  offset="0.5511" style="stop-color:#EC790B"/>
		<stop  offset="1" style="stop-color:#F8B133"/>
	</linearGradient>
	<path class="st26" d="M660,436.5c-1.4,1.1-5,4.4-7.6,6.3c-1.3,0.9-5.1,2.1-7.4,0.8c0,0,8.5-7.6,11.8-9c2.7-1.1,4.5-0.7,5.7-0.3
		C662.5,434.4,660.7,436,660,436.5z"/>
</g>
<rect x="633.5" y="433.8" class="st27" width="29" height="14.5"/>
<line class="st28" x1="737.9" y1="401.7" x2="745.1" y2="410.5"/>
<line class="st28" x1="752.6" y1="401.7" x2="745.4" y2="410.5"/>
<line class="st28" x1="752.6" y1="423.5" x2="745.4" y2="414.7"/>
<line class="st28" x1="737.9" y1="423.5" x2="745.1" y2="414.7"/>
<circle class="st29" cx="776.3" cy="412" r="10"/>
<path class="st30" d="M777.7,406.2c0.8,0,1.2,0.5,1.2,1.1c0,0.8-0.7,1.5-1.5,1.5c-0.7,0-1.2-0.4-1.1-1.1
	C776.2,407.1,776.7,406.2,777.7,406.2L777.7,406.2z M775.3,417.8c-0.6,0-1.1-0.4-0.6-2l0.7-2.9c0.1-0.5,0.1-0.7,0-0.7
	c-0.2,0-1,0.3-1.4,0.6l-0.3-0.5c1.5-1.3,3.2-2,3.9-2c0.6,0,0.7,0.7,0.4,1.9l-0.8,3.1c-0.1,0.5-0.1,0.7,0.1,0.7
	c0.2,0,0.8-0.2,1.4-0.7l0.3,0.5C777.5,417.2,776,417.8,775.3,417.8L775.3,417.8z"/>
<circle class="st24" cx="776.3" cy="435" r="10"/>
<path class="st8" d="M777.7,429.2c0.8,0,1.2,0.5,1.2,1.1c0,0.8-0.7,1.5-1.5,1.5c-0.7,0-1.2-0.4-1.1-1.1
	C776.2,430.1,776.7,429.2,777.7,429.2L777.7,429.2z M775.3,440.8c-0.6,0-1.1-0.4-0.6-2l0.7-2.9c0.1-0.5,0.1-0.7,0-0.7
	c-0.2,0-1,0.3-1.4,0.6l-0.3-0.5c1.5-1.3,3.2-2,3.9-2c0.6,0,0.7,0.7,0.4,1.9l-0.8,3.1c-0.1,0.5-0.1,0.7,0.1,0.7
	c0.2,0,0.8-0.2,1.4-0.7l0.3,0.5C777.5,440.2,776,440.8,775.3,440.8L775.3,440.8z"/>
<g>
	<circle class="st30" cx="817.1" cy="413.6" r="15"/>
	<path class="st7" d="M824.9,408.4c-0.3-0.3-0.7-0.5-1.1-0.5c-0.4,0-0.8,0.2-1.2,0.5l-7.2,7.2l-3.9-3.9c-0.3-0.3-0.7-0.5-1.2-0.5
		c-0.4,0-0.8,0.2-1.1,0.5c-0.3,0.3-0.5,0.7-0.5,1.1c0,0.4,0.2,0.8,0.5,1.1l4.8,4.8c0.1,0.2,0.2,0.3,0.2,0.4c0.3,0.3,0.7,0.5,1.2,0.4
		c0.5,0,0.9-0.1,1.2-0.4c0-0.1,0.1-0.2,0.2-0.4l8.1-8.1c0.3-0.3,0.5-0.7,0.5-1.1C825.4,409.1,825.3,408.7,824.9,408.4L824.9,408.4z"
		/>
</g>
<g>
	<path class="st7" d="M829.5,475.8c0,1.7-1.3,3-3,3h-19c-1.7,0-3-1.3-3-3v-30c0-1.7,1.3-3,3-3h19c1.7,0,3,1.3,3,3V475.8z"/>
	<path class="st24" d="M830,475.3c0,1.7-1.3,3-3,3h-19c-1.7,0-3-1.3-3-3v-30c0-1.7,1.3-3,3-3h19c1.7,0,3,1.3,3,3V475.3z"/>
</g>
<g>
	<path class="st7" d="M829.5,473.8c0,1.7-1.3,3-3,3h-19c-1.7,0-3-1.3-3-3v-30c0-1.7,1.3-3,3-3h19c1.7,0,3,1.3,3,3V473.8z"/>
	<path class="st24" d="M830,473.3c0,1.7-1.3,3-3,3h-19c-1.7,0-3-1.3-3-3v-30c0-1.7,1.3-3,3-3h19c1.7,0,3,1.3,3,3V473.3z"/>
</g>
<g>
	<path class="st7" d="M829.5,471.8c0,1.7-1.3,3-3,3h-19c-1.7,0-3-1.3-3-3v-30c0-1.7,1.3-3,3-3h19c1.7,0,3,1.3,3,3V471.8z"/>
	<path class="st24" d="M830,471.3c0,1.7-1.3,3-3,3h-19c-1.7,0-3-1.3-3-3v-30c0-1.7,1.3-3,3-3h19c1.7,0,3,1.3,3,3V471.3z"/>
</g>
<line class="st31" x1="804.5" y1="457.3" x2="828.5" y2="457.3"/>
<g>
	<circle class="st32" cx="817.9" cy="507.3" r="14.2"/>
	<g>
		<path class="st33" d="M818,509.1l-3.3,3.3l-2-2l3.3-3.3l-2.9-2.9l1.8-1.8l2.9,2.9l3.2-3.2l2,2l-3.2,3.2l2.9,2.9l-1.8,1.8
			L818,509.1z"/>
	</g>
</g>
<g>
	<circle class="st34" cx="817.9" cy="543.3" r="14.2"/>
	<g>
		<path class="st8" d="M818,545.1l-3.3,3.3l-2-2l3.3-3.3l-2.9-2.9l1.8-1.8l2.9,2.9l3.2-3.2l2,2l-3.2,3.2l2.9,2.9l-1.8,1.8L818,545.1
			z"/>
	</g>
</g>
<linearGradient id="SVGID_18_" gradientUnits="userSpaceOnUse" x1="19510.791" y1="-1258.1117" x2="19521.4102" y2="-1258.1117" gradientTransform="matrix(-1 0 0 -1 20326.5898 -682.3217)">
	<stop  offset="0" style="stop-color:#EC790B"/>
	<stop  offset="1" style="stop-color:#F29100"/>
</linearGradient>
<path class="st35" d="M805.7,574.9l7.2-7.1c0.2-0.2,0.5-0.3,0.8-0.3s0.6,0.1,0.8,0.3l0.8,0.8c0.2,0.2,0.3,0.5,0.3,0.8
	s-0.1,0.6-0.3,0.8l-5.6,5.6l5.6,5.6c0.2,0.2,0.3,0.5,0.3,0.8s-0.1,0.6-0.3,0.8l-0.8,0.8c-0.2,0.2-0.5,0.3-0.8,0.3s-0.6-0.1-0.8-0.3
	l-7.2-7.1c-0.4-0.4-0.5-0.7-0.5-1.1C805.2,575.2,805.4,575.3,805.7,574.9L805.7,574.9z"/>
<circle class="st36" cx="776.3" cy="458" r="10"/>
<path class="st7" d="M777.7,452.2c0.8,0,1.2,0.5,1.2,1.1c0,0.8-0.7,1.5-1.5,1.5c-0.7,0-1.2-0.4-1.1-1.1
	C776.2,453.1,776.7,452.2,777.7,452.2L777.7,452.2z M775.3,463.8c-0.6,0-1.1-0.4-0.6-2l0.7-2.9c0.1-0.5,0.1-0.7,0-0.7
	c-0.2,0-1,0.3-1.4,0.6l-0.3-0.5c1.5-1.3,3.2-2,3.9-2c0.6,0,0.7,0.7,0.4,1.9l-0.8,3.1c-0.1,0.5-0.1,0.7,0.1,0.7
	c0.2,0,0.8-0.2,1.4-0.7l0.3,0.5C777.5,463.2,776,463.8,775.3,463.8L775.3,463.8z"/>
</svg>
